PathFileType	4	(X/Y/Z)	29_1_42_p0_0-390.trc
DataRate	CameraRate	NumFrames	NumMarkers	Units	OrigDataRate	OrigDataStartFrame	OrigNumFrames
59.0	59.0	5	27	m	59.0	97	391
Frame#	Time	RHip			RKnee			RAnkle			RBigToe			RSmallToe			RHeel			LHip			LKnee			LAnkle			LBigToe			LSmallToe			LHeel			Neck			Head			Nose			RShoulder			RElbow			RWrist			RThumb			RIndex			RPinky			LShoulder			LElbow			LWrist			LThumb			LIndex			LPinky			
		X1	Y1	Z1	X2	Y2	Z2	X3	Y3	Z3	X4	Y4	Z4	X5	Y5	Z5	X6	Y6	Z6	X7	Y7	Z7	X8	Y8	Z8	X9	Y9	Z9	X10	Y10	Z10	X11	Y11	Z11	X12	Y12	Z12	X13	Y13	Z13	X14	Y14	Z14	X15	Y15	Z15	X16	Y16	Z16	X17	Y17	Z17	X18	Y18	Z18	X19	Y19	Z19	X20	Y20	Z20	X21	Y21	Z21	X22	Y22	Z22	X23	Y23	Z23	X24	Y24	Z24	X25	Y25	Z25	X26	Y26	Z26	X27	Y27	Z27	
97	1.6440677966101696	0.36880323887060645	0.5637187027395406	0.94891309997385	0.31938159495713847	0.6927684578418217	1.353915325189405	0.29737662632566997	0.7855447565330359	1.7329266823895533	0.2846593990730163	0.6460649987606134	1.7750759396651545	0.32856103117278695	0.6648993374206199	1.77239280551179	0.2733518149071293	0.8565795224472295	1.7926179105889293	0.14153278151029403	0.5446057857734639	0.9400912070623466	0.11755900432109254	0.6931769962630349	1.3352500253010968	0.09783345836258485	0.7858467253707647	1.7143477547446906	0.12005543194551217	0.6245682223745609	1.757193683728426	0.06781502033360197	0.6644968360547315	1.7537563032569128	0.11234615951580812	0.8309945550211015	1.7525764667347592	0.305886803477106	0.4048564107586253	0.387760683726284	0.3294416236454605	0.3769668400965474	0.16031312854389254	0.3338181514498635	0.2619687168900381	0.2648420184905631	0.44793077769033934	0.42388253058610437	0.4936458321818831	0.47545774681171504	0.43837191789124386	0.7483645476521389	0.3479570960476189	0.3958865783164046	0.9301511414099001	0.24482527030897627	0.40275473135461637	1.0088067026494776	0.24470407708134323	0.40289582076138136	1.0127057371882004	0.25642146988957404	0.418835029391603	1.0071911261085416	0.13217144299907632	0.42128484589911347	0.4730767059756791	0.07957079931677936	0.4640118248018526	0.7173921648858932	0.18624915673381948	0.3563232017357166	0.9070545455195578	0.2601938589833459	0.3935753671568472	0.9898816522136791	0.2677328534373817	0.4074994400579094	1.0082610584543723	0.24252339439058554	0.4289768715539223	1.0129173121152155
98	1.6610169491525424	0.36890352071729743	0.5638630224403858	0.9491364027949568	0.3194119988622625	0.6929659534134984	1.3539626171942076	0.2973852816939466	0.7855932688525911	1.7329276860368539	0.284655637603466	0.6458902136137216	1.7750254042696807	0.3260605798818264	0.6526530233986565	1.7673361704226722	0.27329959990568475	0.8566581628990474	1.7921585835321647	0.1415131203111633	0.5445131104915178	0.940092090298395	0.1175835018379045	0.6931802520890311	1.3352728930769762	0.09781408660877489	0.7857377545221643	1.7142824054186243	0.12015369596429532	0.6243375964391782	1.7570246607063584	0.06764465192557541	0.6644801025641195	1.753699913584199	0.1100850778289997	0.8156372689869303	1.746459035170109	0.30586598400003284	0.4049086598871604	0.3877938777862142	0.3254654523986957	0.38868564345057177	0.15904112654670585	0.33379454926122115	0.26333926564101107	0.26768328468294667	0.4479016211612971	0.4239483429410659	0.4936455997294502	0.4758537930336798	0.4401848014666306	0.751929457380242	0.3479629928923467	0.39592718229237134	0.9301129953107915	0.24483501642880937	0.4028154380582254	1.008895045977402	0.2445140790250852	0.4038438170542123	1.0092247454452068	0.25269670191885435	0.41732687383675404	1.0070005692266302	0.1321414542520756	0.4213788997011793	0.4730837429717489	0.07954748149973288	0.4640331812997427	0.7174522598581822	0.1862215283552194	0.3563662885176686	0.9071436599116773	0.26319162573595656	0.4048811547586038	0.9919283142161108	0.26407974166291426	0.40640016878037877	1.0079892951588998	0.24252159451053493	0.4289542535982762	1.012938886829847
99	1.6779661016949152	0.36886965449846826	0.5636567369018234	0.9489067511080646	0.31924672097308904	0.6786193958635659	1.3458871256192844	0.29738769643914925	0.7855628584478279	1.7328657621791055	0.2846506265654301	0.6464862573027206	1.7753328611004773	0.3286787437720019	0.6653409386644488	1.7724704402596774	0.27321469853848157	0.8571179048030348	1.7925970707546899	0.14153721894129342	0.5445053365071213	0.9400761541033765	0.11759481475146819	0.6932124036806387	1.3353049498832206	0.09782875898556129	0.7857622110125928	1.71433282560337	0.12028937355279512	0.6238842936153869	1.7569958984515937	0.06743820036437623	0.6651083358397709	1.7541917675906131	0.11052178316211542	0.8187091481183952	1.751780913169905	0.30587349582739026	0.4049267836218843	0.3878028162745688	0.32540094574189593	0.3888126002184991	0.15907375664496534	0.3337612259693988	0.2635488862013703	0.267701278850141	0.4479185698113857	0.42392307664147677	0.49365899102848554	0.47543345767059975	0.43822853731879724	0.7483066642572803	0.3479727955551904	0.39599312399381903	0.930115007091792	0.24706882555912948	0.4146619443780602	1.0110137212230175	0.24682998749713644	0.41538589223668415	1.0113713163876366	0.25265818829540215	0.41735404157586437	1.0070167849642218	0.13217761178056261	0.4212725550202933	0.47305958160817113	0.07738025433498748	0.45186623751364535	0.7162344953772837	0.18625115911344356	0.35626006635261787	0.9070754101866353	0.25688972457220766	0.39213130552647607	0.9895043451434049	0.26402840896601987	0.40638511245383174	1.0079918513657047	0.2424703649676761	0.42899363522568656	1.0129359102771076
100	1.694915254237288	0.3688753688636725	0.5636717997755938	0.949072409964149	0.31927917275937906	0.6785821597939655	1.3458614575096661	0.2974270063668223	0.7854833373096913	1.732864437632938	0.28301041814603295	0.6465041406309034	1.7794676713314206	0.32551405818262996	0.6509280928637075	1.7663897350261797	0.27307884394277687	0.8571482546239978	1.7915622940718545	0.14150535890069288	0.5444364084985217	0.9401359586913353	0.11777524360262737	0.6921242864474884	1.3391086290235896	0.09780883745463716	0.7857412133479093	1.7144608399517711	0.12044037169758072	0.6235669945857546	1.7567608643736854	0.06701617947004311	0.6646938955500074	1.7537885607244459	0.11039861572380462	0.8185556418436343	1.7517476114783654	0.3058213260070386	0.40512397657067417	0.3878044758659344	0.32514175638686554	0.3894394782767066	0.16193748861144358	0.3337556636876739	0.2636242971208381	0.26778228246218905	0.44396478481273977	0.4367614907904804	0.4937440894694966	0.4753732929819245	0.43917773652393605	0.7446263633976566	0.347990316454169	0.39589711482172407	0.9300854430612501	0.24488190448025704	0.40260454298672155	1.0087108692685087	0.24475014243421372	0.402796222154951	1.0127257871988509	0.25277094751323775	0.41723043223383316	1.0069494623806	0.13210968244289203	0.4214661150346223	0.4730672745339992	0.0772853367653717	0.45191028238970615	0.7162167471884351	0.19121368753962747	0.34425275121308146	0.9050708139035936	0.26526847320239794	0.3808390140985306	0.9876305114937198	0.26432402446624115	0.40602807620106957	1.007960366410973	0.24253988338055102	0.4288707055957797	1.0128236473516004
101	1.7118644067796611	0.36895010825711805	0.5635902475262936	0.9490905951944595	0.3183960140117309	0.6939926746427392	1.358829811877085	0.29738962755035153	0.7857089856628342	1.7329250312964375	0.28549254477278896	0.6600265608032015	1.7859081393867633	0.32848289111014856	0.6657092068359944	1.7722004643389546	0.2730205525360403	0.857423252290159	1.791896793747474	0.14695685392733998	0.5305713715465783	0.9380770779977989	0.11823230627147634	0.6947931846250175	1.3447691427361608	0.10377648398455734	0.7696961143941284	1.708415380150073	0.12055549698934215	0.6228220785528336	1.7568352729429497	0.06739019559535453	0.6647798272892983	1.7592008585227916	0.11039484549726597	0.8192848409932371	1.752015068988042	0.3016497660433055	0.41681484818117687	0.3911713851208472	0.32108003596170587	0.3888454587074476	0.16189077852473147	0.3338587322665506	0.26381833667452415	0.27141122311390586	0.44387729884903004	0.43707106275558916	0.49378548445446946	0.47586119591366516	0.440167750822928	0.7520315965558833	0.3452234129435389	0.38506915448456563	0.9282537340645989	0.24487685315805496	0.4026400480782439	1.008633120981663	0.24684923876051437	0.41525174365336853	1.0113163731293455	0.25269786412093154	0.4173263178529759	1.0070163739553069	0.13203728904558995	0.42153920922729493	0.4730551805835147	0.07730704560409275	0.45170472706930703	0.716180417739207	0.19760199462952757	0.3569064728419792	0.9071207672903024	0.26851727008067267	0.39193156292311954	0.9896717103469612	0.2679493355687347	0.4072245520891667	1.008289655554034	0.2426196639821092	0.4289536541285902	1.0128718158997945
